HIERARCHY
ROOT Hips
{
  OFFSET 1.44925e-005 102.336 -0.101585
  CHANNELS 6 Xposition Yposition Zposition Zrotation Xrotation Yrotation
  JOINT RightUpLeg
  {
    OFFSET -8.9458 -8.66707 0.101652
    CHANNELS 3 Zrotation Xrotation Yrotation
    JOINT RightLeg
    {
      OFFSET 0 -44.4227 1.3727
      CHANNELS 3 Zrotation Xrotation Yrotation
      JOINT RightFoot
      {
        OFFSET 0.253549 -42.0924 -1.46059
        CHANNELS 3 Zrotation Xrotation Yrotation
        JOINT RightToes
        {
          OFFSET 0.04 -4.41509 8.4991
          CHANNELS 3 Zrotation Xrotation Yrotation
          End Site
          {
            OFFSET -0.08 -0.137448 9.77979
          }
        }
      }
    }
  }
  JOINT Spine
  {
    OFFSET 0 11.8905 0
    CHANNELS 3 Zrotation Xrotation Yrotation
    JOINT Spine1
    {
      OFFSET 0 25.6574 0.127663
      CHANNELS 3 Zrotation Xrotation Yrotation
      JOINT HEad
      {
        OFFSET 0 8.73416 0.011341
        CHANNELS 3 Zrotation Xrotation Yrotation
        End Site
        {
          OFFSET -0.29 12.7742 2.51395
        }
      }
      JOINT LeftShoulder1
      {
        OFFSET 8.99 -0.362252 -0.22
        CHANNELS 3 Zrotation Xrotation Yrotation
        JOINT LeftArm
        {
          OFFSET 10.2827 -0.00337999 0.322123
          CHANNELS 3 Zrotation Xrotation Yrotation
          JOINT LeftForeArm
          {
            OFFSET 26.2597 0.099144 -1.42434
            CHANNELS 3 Zrotation Xrotation Yrotation
            JOINT LeftHand
            {
              OFFSET 22.0902 0.085362 1.02216
              CHANNELS 3 Zrotation Xrotation Yrotation
              End Site
              {
                OFFSET 13.419 -0.6 1.50291
              }
            }
          }
        }
      }
      JOINT RightShoulder
      {
        OFFSET -8.99 -0.362252 -0.22
        CHANNELS 3 Zrotation Xrotation Yrotation
        JOINT RightArm
        {
          OFFSET -10.2827 -0.00338 0.322123
          CHANNELS 3 Zrotation Xrotation Yrotation
          JOINT RightForeArm
          {
            OFFSET -26.364 0.099144 -1.42434
            CHANNELS 3 Zrotation Xrotation Yrotation
            JOINT RightHand
            {
              OFFSET -22.0324 0.085362 1.02216
              CHANNELS 3 Zrotation Xrotation Yrotation
              End Site
              {
                OFFSET -13.3284 -0.6 1.50291
              }
            }
          }
        }
      }
    }
  }
  JOINT LeftUpLeg
  {
    OFFSET 8.9458 -8.66707 0.101652
    CHANNELS 3 Zrotation Xrotation Yrotation
    JOINT LeftLeg
    {
      OFFSET 0 -44.4227 1.3727
      CHANNELS 3 Zrotation Xrotation Yrotation
      JOINT LeftFoot
      {
        OFFSET -0.253549 -42.0924 -1.46059
        CHANNELS 3 Zrotation Xrotation Yrotation
        JOINT LeftToes
        {
          OFFSET -0.04 -4.41509 8.4991
          CHANNELS 3 Zrotation Xrotation Yrotation
          End Site
          {
            OFFSET 0.08 -0.047448 9.77979
          }
        }
      }
    }
  }
}
MOTION
Frames:	8
Frame Time:	0.0333333
6.73894 80.1871 124.358 -3.76722 10.9485 -99.5647 -0.775172 -57.7106 -11.6314 -0.953315 64.8253 -1.71874 0.0145057 -1.2082 -0.13017 0.0462048 0.000530889 0.662642 24.2672 35.0916 -3.67979 -3.59515 2.29781 4.74799 3.8325 -15.9115 -54.4148 -23.7067 2.49321 -4.80259 -49.7145 7.88479 -25.3883 -10.9626 14.3073 -41.4711 16.5232 7.76087 -10.2553 14.1821 2.62611 7.86956 24.5531 -48.1887 34.3838 2.18803 30.7208 7.55902 -18.9732 8.72985 1.99676 9.63771 -27.1847 -8.81842 177.428 74.1639 -165.07 -4.81333 -16.3717 -0.289082 -1.31755e-009 8.75239e-006 -1.46575e-008 
6.74124 79.9588 124.819 -3.4485 10.9715 -100.739 -0.308966 -58.2357 -11.1498 -0.886786 64.8515 -0.944638 -0.0775549 -0.892051 -0.12265 0.0462048 0.000530889 0.662642 24.7984 35.2788 -3.92917 -4.40032 2.54225 4.8773 1.75588 -16.6193 -55.8909 -23.5301 2.56089 -5.07511 -49.0816 9.31651 -25.5974 -10.7653 14.3729 -41.1129 16.5654 7.78268 -10.0548 13.8057 2.59722 7.91818 22.477 -48.8221 33.1177 2.58033 29.263 5.87608 -17.7742 8.78376 2.16419 9.68469 -27.6134 -7.7815 177.255 74.2042 -163.396 -4.49197 -16.4823 -0.266578 -1.31755e-009 8.75239e-006 -1.46575e-008 
6.86796 79.9124 125.313 -3.42291 10.8899 -101.563 0.0487169 -58.3208 -10.393 -0.829783 64.5159 -0.457418 -0.11228 -0.461501 -0.11739 0.0462048 0.000530889 0.662642 24.8509 35.0413 -4.07525 -4.85866 2.84093 4.79414 0.155852 -16.8732 -57.0396 -23.3901 2.62215 -5.3188 -48.4113 10.3283 -25.561 -10.8771 14.2493 -41.0534 16.5771 7.8183 -9.78508 13.6569 2.57493 7.88592 22.0991 -49.2324 33.0527 2.60182 28.8929 4.98631 -16.8242 8.8174 2.37882 9.53369 -26.4036 -7.78839 177.054 75.4202 -163.532 -5.34746 -17.5605 -0.382839 -1.31755e-009 8.75239e-006 -1.46575e-008 
7.14343 80.0262 125.814 -3.79674 10.6768 -102.078 0.428976 -57.9081 -9.11921 -0.804641 63.7972 -0.461418 0.284494 0.227528 -0.14014 0.0462048 0.000530889 0.662642 24.3231 34.6536 -4.14949 -4.98355 3.11143 4.48282 -0.827326 -17.0104 -57.7218 -23.2659 2.65231 -5.45542 -47.8308 10.7478 -25.2432 -11.3303 13.8894 -41.2397 16.4067 7.87639 -9.52665 13.9216 2.62519 7.99352 22.3623 -49.2715 33.3848 2.56939 29.3102 4.68482 -16.5495 8.79384 2.69093 9.26223 -23.5452 -8.64563 176.823 77.6395 -165.169 -8.76027 -20.84 -0.937403 -1.31755e-009 8.75239e-006 -1.46575e-008 
7.60562 80.2692 126.394 -4.48588 10.2534 -102.424 0.57654 -57.12 -7.59846 -0.784694 62.6372 -0.646783 1.06298 1.34804 -0.196452 0.0462048 0.000530889 0.662642 23.4898 34.0479 -4.11933 -5.18224 3.3935 4.14919 -1.57637 -17.1972 -58.0771 -23.1353 2.6686 -5.54799 -47.1777 11.1511 -25.2179 -11.7618 13.4442 -41.1159 15.8216 7.98618 -9.27737 14.4642 2.71694 8.15468 22.5911 -49.0176 33.3567 2.64515 29.2263 4.82519 -16.2894 8.78861 2.86905 8.86444 -19.7006 -9.88522 176.259 80.7829 -167.183 -13.6164 -26.0058 -2.13649 -1.31755e-009 8.75239e-006 -1.46575e-008 
8.33705 80.6376 127.127 -5.32768 9.63007 -102.82 0.523837 -56.0865 -5.9875 -0.748185 60.9129 -0.794506 1.51602 2.75317 -0.240226 0.0462048 0.000530889 0.662642 22.5144 33.1012 -3.92518 -5.58483 3.86449 3.93793 -2.39474 -17.5332 -58.1583 -23.0969 2.67682 -5.58696 -46.3803 11.7742 -25.8366 -12.0332 12.9172 -40.3863 14.9548 8.13272 -8.99833 15.2298 2.83407 8.31297 22.8827 -48.7588 33.0476 2.67988 28.4591 5.57823 -15.5328 8.84798 2.83358 8.17174 -16.0119 -11.1758 174.987 84.4151 -169.101 -17.7796 -31.4669 -3.72952 -1.31755e-009 8.75239e-006 -1.46575e-008 
9.44955 81.2795 128.041 -6.17525 8.9084 -103.371 0.425652 -54.6237 -4.34234 -0.695495 57.9817 -1.05555 1.66489 4.77682 -0.270659 0.0462048 0.000530889 0.662642 21.32 31.9488 -3.56743 -5.81094 4.63429 3.7962 -3.23977 -18.1581 -57.9374 -23.3016 2.67071 -5.50719 -45.6515 12.1902 -26.947 -12.1425 12.3454 -39.2011 14.3045 8.26964 -8.53426 16.3358 2.99999 8.5087 23.6417 -48.6963 33.0765 2.4817 27.8842 7.04856 -14.8099 8.90453 2.79824 7.05611 -13.5683 -11.8418 170.167 87.7089 -166.717 -19.7771 -35.3864 -4.92226 -1.31755e-009 8.75239e-006 -1.46575e-008 
10.9194 82.434 129.107 -6.90439 8.16264 -103.999 0.143435 -52.2996 -2.84468 -0.635383 53.0106 -1.52528 2.64148 7.97758 -0.434462 0.0462048 0.000530889 0.662642 19.8769 30.7622 -3.12937 -5.60829 5.58436 3.61431 -3.91253 -19.0234 -57.4224 -23.6647 2.66535 -5.38575 -45.3624 12.036 -28.1859 -11.8941 12.0268 -37.7971 13.9886 8.40662 -7.67363 17.7978 3.2079 8.69363 25.064 -48.6652 33.769 2.12304 27.6738 8.93807 -14.701 8.89917 2.90771 5.77947 -12.5292 -11.0656 34.0973 89.3036 -30.6214 -19.5415 -37.1559 -5.20341 -1.31755e-009 8.75239e-006 -1.46575e-008 
